<?xml version="1.0" encoding="UTF-8"?>
<svg xmlns="http://www.w3.org/2000/svg" xmlns:xlink="http://www.w3.org/1999/xlink" width="37px" height="40px" viewBox="0 0 37 40" version="1.1">
<g id="surface1">
<path style=" stroke:none;fill-rule:evenodd;fill:rgb(0%,0%,0%);fill-opacity:1;" d="M 30.960938 31.871094 C 29.847656 31.054688 28.664062 30.214844 28.042969 29.871094 C 26.488281 28.996094 26.230469 26.855469 26.898438 26.765625 C 27.164062 26.726562 28.042969 27.179688 29.0625 27.777344 C 31.410156 29.160156 35.011719 31.476562 36.488281 33.742188 C 36.824219 34.257812 37.027344 34.765625 36.996094 35.21875 C 36.972656 35.566406 36.777344 35.820312 36.339844 35.949219 C 33.195312 37.136719 30.433594 38.4375 28.175781 39.886719 C 27.984375 39.992188 27.808594 40.019531 27.648438 39.980469 C 27.117188 39.855469 26.652344 38.757812 26.503906 38.296875 C 26.289062 37.628906 26.367188 37.234375 26.914062 36.863281 C 27.988281 36.132812 29.214844 35.59375 30.449219 35.074219 C 21.566406 34.511719 14.25 30.792969 9.019531 25.171875 C 3.230469 18.953125 -0.0078125 10.40625 0 1.234375 C 0 0.710938 0.046875 0.417969 0.324219 0.195312 C 0.574219 -0.00390625 0.890625 -0.015625 1.445312 0.0117188 C 2.304688 0.0585938 2.78125 0.21875 3.097656 0.730469 C 3.367188 1.171875 3.433594 1.808594 3.5 2.875 C 3.519531 3.1875 3.550781 3.5 3.570312 3.8125 C 4.089844 11.515625 7.171875 18.621094 12.3125 23.761719 C 16.964844 28.414062 23.304688 31.453125 30.960938 31.871094 Z M 30.960938 31.871094 "/>
</g>
</svg>
